<svg width="86" height="48" viewBox="0 0 86 48" fill="none" xmlns="http://www.w3.org/2000/svg">
<path d="M7 5.06246C9.88825 4.34043 13.0653 10.1169 17.1089 10.1169C22.1633 10.1169 24.4739 5.06246 27.9398 5.06246C32.9942 5.06246 33.4275 10.1169 38.0487 10.1169C42.6699 10.1169 44.2584 5.06246 48.8796 5.06246C53.5008 5.06246 53.7896 10.1169 58.9885 10.1169C63.3209 10.1169 65.6315 5.06246 69.0974 5.06246C74.1518 5.06246 73.4297 10.1169 79.2062 10.1169" stroke="#0086CA" stroke-width="2.88825"/>
<path d="M7 21.7324C9.88825 21.0103 13.0653 26.7868 17.1089 26.7868C22.1633 26.7869 24.4739 21.7324 27.9398 21.7324C32.9942 21.7324 33.4275 26.7868 38.0487 26.7868C42.6699 26.7868 44.2584 21.7324 48.8796 21.7324C53.5008 21.7324 53.7896 26.7868 58.9885 26.7868C63.3209 26.7868 65.6315 21.7324 69.0974 21.7324C74.1518 21.7324 73.4297 26.7869 79.2062 26.7868" stroke="#0086CA" stroke-width="2.88825"/>
<path d="M7 38.4023C9.88825 37.6803 13.0653 43.4567 17.1089 43.4567C22.1633 43.4568 24.4739 38.4023 27.9398 38.4023C32.9942 38.4023 33.4275 43.4567 38.0487 43.4567C42.6699 43.4567 44.2584 38.4023 48.8796 38.4023C53.5008 38.4023 53.7896 43.4567 58.9885 43.4567C63.3209 43.4567 65.6315 38.4023 69.0974 38.4023C74.1518 38.4023 73.4297 43.4568 79.2062 43.4567" stroke="#0086CA" stroke-width="2.88825"/>
</svg>
